<svg width="38" height="32" viewBox="0 0 38 32" fill="none" xmlns="http://www.w3.org/2000/svg">
<path d="M3.3079 27.1198C3.35054 27.179 3.42327 27.2151 3.52194 27.2259C3.62061 27.2367 3.74327 27.2221 3.88289 27.1829L17.4165 23.3408C17.6997 23.2604 18.0342 23.0848 18.3466 22.8526C18.659 22.6204 18.9236 22.3507 19.0822 22.1027C19.2408 21.8548 19.2804 21.6489 19.1923 21.5304C19.1043 21.4119 18.8957 21.3905 18.6126 21.4709L6.13486 25.0186L13.1292 14.0934C13.2077 13.9707 13.2578 13.8569 13.2767 13.7587C13.2956 13.6605 13.2829 13.5798 13.2393 13.5211C13.1957 13.4624 13.1221 13.427 13.0226 13.4168C12.9231 13.4066 12.7997 13.4218 12.6595 13.4616C12.5193 13.5014 12.365 13.565 12.2054 13.6488C12.0458 13.7325 11.8841 13.8348 11.7294 13.9498C11.5748 14.0647 11.4302 14.1901 11.304 14.3188C11.1778 14.4474 11.0724 14.5769 10.9939 14.6996L3.41327 26.551C3.33545 26.6734 3.28609 26.7866 3.26801 26.8842C3.24993 26.9818 3.26349 27.0619 3.3079 27.1198Z" fill="#049561" stroke="#049561"/>
<path d="M3.30868 27.1197C3.3964 27.2378 3.6041 27.2591 3.88611 27.179C4.16811 27.099 4.50131 26.9241 4.81242 26.6928L32.9647 5.76822C33.2758 5.53699 33.5393 5.26835 33.6973 5.0214C33.8552 4.77445 33.8947 4.56941 33.807 4.4514C33.7193 4.33339 33.5116 4.31207 33.2295 4.39213C32.9475 4.47219 32.6143 4.64707 32.3032 4.8783L4.15097 25.8029C3.83987 26.0342 3.57635 26.3028 3.41839 26.5498C3.26043 26.7967 3.22097 27.0017 3.30868 27.1197Z" fill="#049561" stroke="#049561"/>
</svg>
