<svg width="16" height="16" viewBox="0 0 16 16" fill="none" xmlns="http://www.w3.org/2000/svg">
<circle cx="8" cy="8" r="8" fill="#110C4A"/>
<circle cx="8" cy="8" r="8" fill="black" fill-opacity="0.2"/>
<g clip-path="url(#clip0_1024_1261)">
<path d="M7.99967 14.6667C11.6816 14.6667 14.6663 11.6819 14.6663 8C14.6663 4.3181 11.6816 1.33334 7.99967 1.33334C4.31778 1.33334 1.33301 4.3181 1.33301 8C1.33301 11.6819 4.31778 14.6667 7.99967 14.6667Z" stroke="#110C4A" stroke-width="2" stroke-linecap="round" stroke-linejoin="round"/>
<path d="M7.99967 14.6667C11.6816 14.6667 14.6663 11.6819 14.6663 8C14.6663 4.3181 11.6816 1.33334 7.99967 1.33334C4.31778 1.33334 1.33301 4.3181 1.33301 8C1.33301 11.6819 4.31778 14.6667 7.99967 14.6667Z" stroke="black" stroke-opacity="0.2" stroke-width="2" stroke-linecap="round" stroke-linejoin="round"/>
<path d="M8 5.33334V10.6667" stroke="white" stroke-width="2" stroke-linecap="round" stroke-linejoin="round"/>
<path d="M5.33301 8H10.6663" stroke="white" stroke-width="2" stroke-linecap="round" stroke-linejoin="round"/>
</g>
<defs>
<clipPath id="clip0_1024_1261">
<rect width="16" height="16" fill="white"/>
</clipPath>
</defs>
</svg>
