<svg width="24" height="24" viewBox="0 0 24 24" fill="none" xmlns="http://www.w3.org/2000/svg">
<path d="M12 24C10.9391 24 9.92172 23.6109 9.17157 22.9185C8.42143 22.2261 8 21.2869 8 20.3076C8 20.0628 8.10536 19.828 8.29289 19.6549C8.48043 19.4818 8.73478 19.3846 9 19.3846H15C15.2652 19.3846 15.5196 19.4818 15.7071 19.6549C15.8946 19.828 16 20.0628 16 20.3076C16 21.2869 15.5786 22.2261 14.8284 22.9185C14.0783 23.6109 13.0609 24 12 24ZM10.27 21.2307C10.4458 21.5105 10.6982 21.7427 11.0018 21.9041C11.3054 22.0656 11.6496 22.1505 12 22.1505C12.3504 22.1505 12.6946 22.0656 12.9982 21.9041C13.3018 21.7427 13.5542 21.5105 13.73 21.2307H10.27Z" fill="black"/>
<path d="M14 3.69231H10C9.73478 3.69231 9.48043 3.59506 9.29289 3.42194C9.10536 3.24883 9 3.01405 9 2.76923C9 2.03479 9.31607 1.33042 9.87868 0.811089C10.4413 0.291757 11.2044 0 12 0C12.7956 0 13.5587 0.291757 14.1213 0.811089C14.6839 1.33042 15 2.03479 15 2.76923C15 3.01405 14.8946 3.24883 14.7071 3.42194C14.5196 3.59506 14.2652 3.69231 14 3.69231Z" fill="black"/>
<path d="M23 21.2308H1C0.734786 21.2308 0.480432 21.1335 0.292895 20.9604C0.105359 20.7873 2.11107e-06 20.5525 2.11107e-06 20.3077C-0.000874888 19.2652 0.271509 18.238 0.793906 17.3138C1.3163 16.3895 2.0732 15.5957 3 15V10.1538C2.99995 7.96006 3.93992 5.85532 5.61479 4.29891C7.28966 2.7425 9.56347 1.86077 11.94 1.84615H12.05C14.4369 1.84615 16.7261 2.72142 18.414 4.27941C20.1018 5.83741 21.05 7.9505 21.05 10.1538V15C21.9676 15.6008 22.7148 16.3969 23.2283 17.3208C23.7418 18.2447 24.0065 19.2693 24 20.3077C24 20.5525 23.8946 20.7873 23.7071 20.9604C23.5196 21.1335 23.2652 21.2308 23 21.2308ZM2.1 19.3846H21.9C21.7584 18.7447 21.4712 18.1398 21.0575 17.6099C20.6437 17.08 20.1129 16.6372 19.5 16.3108C19.3474 16.2294 19.2208 16.1123 19.133 15.9713C19.0452 15.8303 18.9993 15.6703 19 15.5077V10.1538C19 8.44013 18.2625 6.79661 16.9497 5.58484C15.637 4.37307 13.8565 3.6923 12 3.6923C10.1435 3.6923 8.36301 4.37307 7.05025 5.58484C5.7375 6.79661 5 8.44013 5 10.1538V15.5077C5.0007 15.6703 4.95483 15.8303 4.86702 15.9713C4.77922 16.1123 4.65261 16.2294 4.5 16.3108C3.88711 16.6372 3.35625 17.08 2.94253 17.6099C2.52881 18.1398 2.24164 18.7447 2.1 19.3846Z" fill="black"/>
</svg>
