<svg width="23" height="24" viewBox="0 0 23 24" fill="none" xmlns="http://www.w3.org/2000/svg">
<path stroke="#fff" d="M22.696 11.1802H21.6076V5.88325C21.6076 4.61336 20.6311 3.58026 19.4307 3.58026H17.9565L16.4479 0.710735C16.218 0.272196 15.7804 0 15.3059 0C15.0847 0 14.8653 0.0603447 14.6715 0.174082L8.88183 3.58019H2.41469C1.21433 3.58019 0.237793 4.61329 0.237793 5.88318V21.697C0.237793 22.9669 1.21433 24 2.41469 24H19.4307C20.6311 24 21.6076 22.9669 21.6076 21.697V17.0528H22.696V11.1802ZM19.4307 4.50142C20.1012 4.50142 20.6489 5.04029 20.7224 5.72981H19.0863L18.441 4.50142H19.4307ZM15.0951 0.979204C15.2993 0.858085 15.5741 0.942797 15.6868 1.15795L18.0901 5.72938H7.02014L15.0951 0.979204ZM20.7368 21.697C20.7368 22.4588 20.1507 23.0788 19.4306 23.0788H2.41469C1.69457 23.0788 1.10851 22.4588 1.10851 21.697V5.88325C1.10851 5.12142 1.69457 4.50142 2.41469 4.50142H7.31619L5.22811 5.72988H2.68682C2.44605 5.72988 2.25142 5.93622 2.25142 6.19049C2.25142 6.44477 2.44605 6.65111 2.68682 6.65111H3.66206H19.5704H20.7368V11.1806H17.5529C16.0743 11.1806 14.871 12.4537 14.871 14.0179V14.216C14.871 15.7802 16.0744 17.0533 17.5529 17.0533H20.7368V21.697ZM21.8252 16.1316H21.6076H17.5529C16.5541 16.1316 15.7417 15.2722 15.7417 14.2155V14.0174C15.7417 12.9608 16.5541 12.1013 17.5529 12.1013H21.6076H21.8252V16.1316ZM18.8864 14.1543C18.8864 14.7162 18.4563 15.1713 17.9251 15.1713C17.394 15.1713 16.9639 14.7162 16.9639 14.1543C16.9639 13.5924 17.394 13.1373 17.9251 13.1373C18.4563 13.1372 18.8864 13.5928 18.8864 14.1543Z" fill="#fff"/>
</svg>
