<svg width="24" height="24" viewBox="0 0 24 24" fill="none" xmlns="http://www.w3.org/2000/svg">
<g clip-path="url(#clip0_920_30981)">
<path fill-rule="evenodd" clip-rule="evenodd" d="M21.5175 2.25H2.48303C1.3451 2.25 0.414062 3.09375 0.414062 4.125V22.125C0.414062 23.1562 1.3451 24 2.48303 24H21.5175C22.6554 24 23.5865 23.1562 23.5865 22.125V4.125C23.5865 3.09375 22.6554 2.25 21.5175 2.25ZM21.5175 2.625C22.4303 2.625 23.1727 3.29775 23.1727 4.125V22.125C23.1727 22.9522 22.4303 23.625 21.5175 23.625H2.48303C1.5702 23.625 0.827856 22.9522 0.827856 22.125V4.125C0.827856 3.29775 1.5702 2.625 2.48303 2.625H21.5175Z" fill="white"/>
<path fill-rule="evenodd" clip-rule="evenodd" d="M19.2815 0H4.71848C4.34276 0 3.97821 0.115875 3.68441 0.328875L0.931862 2.32463C0.343034 2.75137 0 3.39787 0 4.0815V22.125C0 23.1562 0.931035 24 2.06897 24H21.931C23.069 24 24 23.1562 24 22.125V4.0815C24 3.39787 23.6574 2.75137 23.0681 2.32463L20.3156 0.328875C20.0222 0.115875 19.6572 0 19.2815 0ZM19.2815 0.75C19.4686 0.75 19.6523 0.8085 19.7983 0.91425L22.5513 2.91C22.9461 3.1965 23.1724 3.62325 23.1724 4.0815V22.125C23.1724 22.7453 22.6154 23.25 21.931 23.25H2.06897C1.38455 23.25 0.827586 22.7453 0.827586 22.125V4.0815C0.827586 3.62325 1.05393 3.1965 1.44869 2.91L4.20166 0.91425C4.34772 0.8085 4.53145 0.75 4.71848 0.75H19.2815Z" fill="white"/>
<path fill-rule="evenodd" clip-rule="evenodd" d="M20.276 4.5H3.72429C3.04153 4.5 2.48291 5.00625 2.48291 5.625V20.625C2.48291 21.2437 3.04153 21.75 3.72429 21.75H20.276C20.9588 21.75 21.5174 21.2437 21.5174 20.625V5.625C21.5174 5.00625 20.9588 4.5 20.276 4.5ZM20.276 4.875C20.7324 4.875 21.1036 5.21137 21.1036 5.625V20.625C21.1036 21.0386 20.7324 21.375 20.276 21.375H3.72429C3.26788 21.375 2.8967 21.0386 2.8967 20.625V5.625C2.8967 5.21137 3.26788 4.875 3.72429 4.875H20.276Z" fill="white"/>
<path fill-rule="evenodd" clip-rule="evenodd" d="M11.1726 9.375C8.88722 9.375 7.03467 11.0539 7.03467 13.125C7.03467 15.1961 8.88722 16.875 11.1726 16.875C13.458 16.875 15.3105 15.1961 15.3105 13.125C15.3105 11.0539 13.458 9.375 11.1726 9.375ZM11.1726 9.75C13.2263 9.75 14.8967 11.2639 14.8967 13.125C14.8967 14.9861 13.2263 16.5 11.1726 16.5C9.11894 16.5 7.44846 14.9861 7.44846 13.125C7.44846 11.2639 9.11894 9.75 11.1726 9.75Z" fill="white"/>
<path fill-rule="evenodd" clip-rule="evenodd" d="M13.2414 13.125C13.2414 14.1604 12.315 15 11.1725 15C10.03 15 9.10352 14.1604 9.10352 13.125C9.10352 12.0896 10.03 11.25 11.1725 11.25C12.315 11.25 13.2414 12.0896 13.2414 13.125Z" fill="white"/>
<path fill-rule="evenodd" clip-rule="evenodd" d="M18.2067 9.75C17.5211 9.75 16.9653 10.2536 16.9653 10.875C16.9653 11.4964 17.5211 12 18.2067 12C18.8924 12 19.4481 11.4964 19.4481 10.875C19.4481 10.2536 18.8924 9.75 18.2067 9.75ZM18.2067 10.125C18.6631 10.125 19.0343 10.4614 19.0343 10.875C19.0343 11.2886 18.6631 11.625 18.2067 11.625C17.7503 11.625 17.3791 11.2886 17.3791 10.875C17.3791 10.4614 17.7503 10.125 18.2067 10.125Z" fill="white"/>
<path fill-rule="evenodd" clip-rule="evenodd" d="M18.2068 16.5C17.9792 16.5 17.793 16.3313 17.793 16.125V10.875C17.793 10.6687 17.9792 10.5 18.2068 10.5C18.4343 10.5 18.6206 10.6687 18.6206 10.875V16.125C18.6206 16.3313 18.4343 16.5 18.2068 16.5Z" fill="white"/>
<path fill-rule="evenodd" clip-rule="evenodd" d="M1.24121 2.4375L4.13776 0.1875H19.4481L22.7585 2.4375H1.24121Z" fill="white"/>
<path fill-rule="evenodd" clip-rule="evenodd" d="M2.68954 11.625C2.34816 11.625 2.06885 11.3719 2.06885 11.0625V8.4375C2.06885 8.12813 2.34816 7.875 2.68954 7.875C3.03092 7.875 3.31023 8.12813 3.31023 8.4375V11.0625C3.31023 11.3719 3.03092 11.625 2.68954 11.625Z" fill="white"/>
<path fill-rule="evenodd" clip-rule="evenodd" d="M2.68954 18.75C2.34816 18.75 2.06885 18.4969 2.06885 18.1875V15.5625C2.06885 15.2531 2.34816 15 2.68954 15C3.03092 15 3.31023 15.2531 3.31023 15.5625V18.1875C3.31023 18.4969 3.03092 18.75 2.68954 18.75Z" fill="white"/>
</g>
<defs>
<clipPath id="clip0_920_30981">
<rect width="24" height="24" fill="white"/>
</clipPath>
</defs>
</svg>
