<svg width="25" height="26" viewBox="0 0 25 26" fill="none" xmlns="http://www.w3.org/2000/svg">
<path d="M23.6952 12.9183L12.4727 2.07324" stroke="white" stroke-miterlimit="10" stroke-linecap="round" stroke-linejoin="round"/>
<path d="M1.2373 12.9183L12.4603 2.07324" stroke="white" stroke-miterlimit="10" stroke-linecap="round" stroke-linejoin="round"/>
<mask id="path-3-outside-1_920_29012" maskUnits="userSpaceOnUse" x="15.1807" y="0" width="6" height="9" fill="black">
<rect fill="white" x="15.1807" width="6" height="9"/>
<path d="M16.1807 4.69742V1.75595C16.1807 1.33856 16.5309 1 16.9615 1H18.5866C19.0175 1 19.3668 1.33856 19.3668 1.75595V7.71307"/>
</mask>
<path d="M15.1807 4.69742C15.1807 5.2497 15.6284 5.69742 16.1807 5.69742C16.7329 5.69742 17.1807 5.2497 17.1807 4.69742H15.1807ZM18.3668 7.71307C18.3668 8.26536 18.8145 8.71307 19.3668 8.71307C19.9191 8.71307 20.3668 8.26536 20.3668 7.71307H18.3668ZM17.1807 4.69742V1.75595H15.1807V4.69742H17.1807ZM17.1807 1.75595C17.1807 1.92155 17.052 2 16.9615 2V0C16.0098 0 15.1807 0.75558 15.1807 1.75595H17.1807ZM16.9615 2H18.5866V0H16.9615V2ZM18.5866 2C18.4951 2 18.3668 1.9203 18.3668 1.75595H20.3668C20.3668 0.756827 19.5399 0 18.5866 0V2ZM18.3668 1.75595V7.71307H20.3668V1.75595H18.3668Z" fill="white" mask="url(#path-3-outside-1_920_29012)"/>
<mask id="path-5-outside-2_920_29012" maskUnits="userSpaceOnUse" x="2.72266" y="10.7515" width="20" height="16" fill="black">
<rect fill="white" x="2.72266" y="10.7515" width="20" height="16"/>
<path d="M21.1984 11.7515V24.2236C21.1984 24.6526 20.8395 24.9999 20.398 24.9999H4.52295C4.08085 24.9999 3.72266 24.6526 3.72266 24.2236V11.7515"/>
</mask>
<path d="M22.1984 11.7515C22.1984 11.1992 21.7507 10.7515 21.1984 10.7515C20.6462 10.7515 20.1984 11.1992 20.1984 11.7515H22.1984ZM4.72266 11.7515C4.72266 11.1992 4.27494 10.7515 3.72266 10.7515C3.17037 10.7515 2.72266 11.1992 2.72266 11.7515H4.72266ZM20.1984 11.7515V24.2236H22.1984V11.7515H20.1984ZM20.1984 24.2236C20.1984 24.0709 20.3171 23.9999 20.398 23.9999V25.9999C21.3618 25.9999 22.1984 25.2344 22.1984 24.2236H20.1984ZM20.398 23.9999H4.52295V25.9999H20.398V23.9999ZM4.52295 23.9999C4.60399 23.9999 4.72266 24.0716 4.72266 24.2236H2.72266C2.72266 25.2336 3.55772 25.9999 4.52295 25.9999V23.9999ZM4.72266 24.2236V11.7515H2.72266V24.2236H4.72266Z" fill="white" mask="url(#path-5-outside-2_920_29012)"/>
</svg>
