<svg width="27" height="28" viewBox="0 0 27 28" fill="none" xmlns="http://www.w3.org/2000/svg">
<mask id="path-1-outside-1_920_31006" maskUnits="userSpaceOnUse" x="0.476074" y="5.3335" width="10" height="17" fill="black">
<rect fill="white" x="0.476074" y="5.3335" width="10" height="17"/>
<path d="M8.47607 20.6669L2.23769 14.0002L8.47607 7.3335"/>
</mask>
<path d="M9.57133 19.642C10.1374 20.2469 10.1059 21.1961 9.50097 21.7621C8.89607 22.3282 7.94685 22.2967 7.38082 21.6918L9.57133 19.642ZM2.23769 14.0002L1.14243 15.0251C0.602773 14.4484 0.602773 13.552 1.14243 12.9753L2.23769 14.0002ZM7.38082 6.3086C7.94685 5.70371 8.89607 5.6722 9.50097 6.23824C10.1059 6.80427 10.1374 7.7535 9.57133 8.35839L7.38082 6.3086ZM7.38082 21.6918L1.14243 15.0251L3.33295 12.9753L9.57133 19.642L7.38082 21.6918ZM1.14243 12.9753L7.38082 6.3086L9.57133 8.35839L3.33295 15.0251L1.14243 12.9753Z" fill="white" mask="url(#path-1-outside-1_920_31006)"/>
<path d="M2.23783 14H17.21" stroke="white" stroke-width="1.5" stroke-linecap="round" stroke-linejoin="round"/>
<mask id="path-4-outside-2_920_31006" maskUnits="userSpaceOnUse" x="15.6958" y="0" width="11" height="28" fill="black">
<rect fill="white" x="15.6958" width="11" height="28"/>
<path d="M17.2097 26H22.2004C22.8623 26 23.497 25.719 23.9649 25.219C24.4329 24.7189 24.6958 24.0406 24.6958 23.3333V4.66667C24.6958 3.95942 24.4329 3.28115 23.9649 2.78105C23.497 2.28095 22.8623 2 22.2004 2H17.2097"/>
</mask>
<path d="M17.2097 27.5C16.3813 27.5 15.7097 26.8284 15.7097 26C15.7097 25.1716 16.3813 24.5 17.2097 24.5V27.5ZM24.6958 23.3333H26.1958H24.6958ZM22.2004 2V0.5V2ZM17.2097 3.5C16.3813 3.5 15.7097 2.82843 15.7097 2C15.7097 1.17157 16.3813 0.5 17.2097 0.5V3.5ZM17.2097 24.5H22.2004V27.5H17.2097V24.5ZM22.2004 24.5C22.4311 24.5 22.6741 24.403 22.8697 24.1941L25.0602 26.2438C24.3198 27.0351 23.2934 27.5 22.2004 27.5V24.5ZM22.8697 24.1941C23.0683 23.9817 23.1958 23.6737 23.1958 23.3333H26.1958C26.1958 24.4074 25.7974 25.456 25.0602 26.2438L22.8697 24.1941ZM23.1958 23.3333V4.66667H26.1958V23.3333H23.1958ZM23.1958 4.66667C23.1958 4.3263 23.0683 4.01826 22.8697 3.80594L25.0602 1.75615C25.7974 2.54403 26.1958 3.59255 26.1958 4.66667H23.1958ZM22.8697 3.80594C22.6741 3.597 22.4311 3.5 22.2004 3.5V0.5C23.2934 0.5 24.3198 0.964906 25.0602 1.75615L22.8697 3.80594ZM22.2004 3.5H17.2097V0.5H22.2004V3.5Z" fill="white" mask="url(#path-4-outside-2_920_31006)"/>
</svg>
