<svg width="23" height="24" viewBox="0 0 23 24" fill="none" xmlns="http://www.w3.org/2000/svg">
<path d="M21.6268 21.7357H19.4879V20.8301H21.6268V0.905655H3.44629V0H21.6268C22.215 0 22.6962 0.407545 22.6962 0.905655V20.8301C22.6962 21.3282 22.215 21.7357 21.6268 21.7357Z" fill="white"/>
<path d="M18.953 23.9999H1.30723C0.719041 23.9999 0.237793 23.5923 0.237793 23.0942V2.26416H18.953C19.5412 2.26416 20.0224 2.6717 20.0224 3.12453V23.0942C20.0224 23.5923 19.5412 23.9999 18.953 23.9999ZM1.30723 3.16982V23.0942H18.953V3.12453L1.30723 3.16982Z" fill="white"/>
<path d="M15.4774 12.2262H4.78304C4.35526 12.2262 3.98096 11.9092 3.98096 11.547V5.6602C3.98096 5.29794 4.35526 4.98096 4.78304 4.98096H15.4774C15.9052 4.98096 16.2795 5.29794 16.2795 5.6602V11.547C16.2795 11.9092 15.9052 12.2262 15.4774 12.2262ZM5.0504 11.3205H15.2101V5.88661H5.0504V11.3205Z" fill="white"/>
<path d="M13.6057 9.05655H6.65435C6.33352 9.05655 6.11963 8.87542 6.11963 8.60371C6.11963 8.33201 6.33352 8.15088 6.65435 8.15088H13.6057C13.9265 8.15088 14.1404 8.33201 14.1404 8.60371C14.1404 8.87542 13.9265 9.05655 13.6057 9.05655Z" fill="white"/>
<path d="M13.6057 7.69815H6.65435C6.33352 7.69815 6.11963 7.51702 6.11963 7.24532C6.11963 6.97361 6.33352 6.79248 6.65435 6.79248H13.6057C13.9265 6.79248 14.1404 6.97361 14.1404 7.24532C14.1404 7.51702 13.9265 7.69815 13.6057 7.69815Z" fill="white"/>
<path d="M13.6057 10.4149H6.65435C6.33352 10.4149 6.11963 10.2338 6.11963 9.96211C6.11963 9.69041 6.33352 9.50928 6.65435 9.50928H13.6057C13.9265 9.50928 14.1404 9.69041 14.1404 9.96211C14.1404 10.2338 13.9265 10.4149 13.6057 10.4149Z" fill="white"/>
<path d="M3.98106 0H2.91162V2.71698H3.98106V0Z" fill="white"/>
<path d="M1.30723 2.26413H0.237793C0.237793 0.996217 1.41418 0 2.91139 0V0.905652C2.00237 0.905652 1.30723 1.49433 1.30723 2.26413Z" fill="white"/>
</svg>
