<svg width="24" height="24" viewBox="0 0 24 24" fill="none" xmlns="http://www.w3.org/2000/svg">
<path d="M19.2722 0H0V24H24V3.43617L23.6807 3.20048L19.2 0H19.2722Z" fill="#B1B1B4"/>
<path d="M18.2398 6.85693H5.7598C5.22961 6.85693 4.7998 7.16394 4.7998 7.54265V7.8855C4.7998 8.26421 5.22961 8.57122 5.7598 8.57122H18.2398C18.77 8.57122 19.1998 8.26421 19.1998 7.8855V7.54265C19.1998 7.16394 18.77 6.85693 18.2398 6.85693Z" fill="white"/>
<path d="M18.2398 10.2856H5.7598C5.22961 10.2856 4.7998 10.5926 4.7998 10.9714V11.3142C4.7998 11.6929 5.22961 11.9999 5.7598 11.9999H18.2398C18.77 11.9999 19.1998 11.6929 19.1998 11.3142V10.9714C19.1998 10.5926 18.77 10.2856 18.2398 10.2856Z" fill="white"/>
<path d="M18.2398 13.7144H5.7598C5.22961 13.7144 4.7998 14.0214 4.7998 14.4001V14.7429C4.7998 15.1216 5.22961 15.4286 5.7598 15.4286H18.2398C18.77 15.4286 19.1998 15.1216 19.1998 14.7429V14.4001C19.1998 14.0214 18.77 13.7144 18.2398 13.7144Z" fill="white"/>
<path d="M18.2398 17.1431H5.7598C5.22961 17.1431 4.7998 17.4501 4.7998 17.8288V18.1716C4.7998 18.5503 5.22961 18.8574 5.7598 18.8574H18.2398C18.77 18.8574 19.1998 18.5503 19.1998 18.1716V17.8288C19.1998 17.4501 18.77 17.1431 18.2398 17.1431Z" fill="white"/>
<path d="M19.2002 0L24.0002 3.42857H19.2002V0Z" fill="#B1B1B4"/>
</svg>
