<svg width="27" height="19" viewBox="0 0 27 19" fill="none" xmlns="http://www.w3.org/2000/svg">
<path d="M26.5901 1.9141C26.2028 0.977402 25.1802 -0.0324506 23.6243 0.000799491H3.37502C1.8107 -0.0324506 0.788911 1.00495 0.405002 1.9521C-0.00506254 2.89261 0.00337502 3.72101 0 3.80081V15.1999C0.00337502 15.2787 -0.00506254 16.1081 0.405002 17.0486C0.783004 17.9815 1.77864 19.0008 3.30161 19.0008C3.32608 19.0008 3.35055 19.0008 3.37502 18.9999H23.6243C23.6943 18.9942 24.4309 19.0065 25.2662 18.5429C26.1066 18.1126 27.0288 16.9621 26.9993 15.1999V3.74191C26.9942 3.66021 27.0052 2.84226 26.5901 1.9141ZM1.71535 3.51106C1.75754 3.20801 1.87904 2.76341 2.10939 2.46035C2.34648 2.163 2.63673 1.9141 3.37502 1.9008H23.6243C24.5988 1.93405 24.8427 2.3169 25.0865 2.77766C25.1937 3.01231 25.2544 3.27071 25.2831 3.46451C25.3118 3.65831 25.3034 3.74096 25.3101 3.74191V3.80081H1.68751C1.68751 3.80081 1.68582 3.71056 1.71535 3.51106ZM25.3118 15.1999C25.2823 16.2886 24.9372 16.565 24.5128 16.8424C24.2976 16.965 24.0605 17.0353 23.8825 17.0657C23.7044 17.0999 23.6243 17.0923 23.6243 17.098H3.37502C2.40723 17.0657 2.16339 16.6771 1.91364 16.1983C1.80648 15.9561 1.74488 15.6882 1.7162 15.4858C1.68582 15.2901 1.69257 15.1999 1.68751 15.1999V7.60082H25.3118V15.1999Z" fill="#B1B1B4"/>
</svg>
